<mxfile host="app.diagrams.net" modified="2023-09-26T14:44:08.461Z" agent="Mozilla/5.0 (X11; Linux x86_64; rv:102.0) Gecko/20100101 Firefox/102.0" version="21.8.0" etag="6zfo8QgUne7t7qiqVT9Z" type="github">
  <diagram name="PÃ¡gina-1" id="N0WRkLPJGyiUftcaJrzl">
    <mxGraphModel>
      <root>
        <mxCell id="0" />
        <mxCell id="1" parent="0" />
      </root>
    </mxGraphModel>
  </diagram>
</mxfile>
